<svg xmlns="http://www.w3.org/2000/svg" xmlns:xlink="http://www.w3.org/1999/xlink" width="572.818" height="256.808" viewBox="0 0 572.818 256.808"><defs><filter id="a" x="0" y="0" width="256.799" height="256.808" filterUnits="userSpaceOnUse"><feOffset dx="4" dy="3" input="SourceAlpha"/><feGaussianBlur stdDeviation="7" result="b"/><feFlood flood-opacity="0.161"/><feComposite operator="in" in2="b"/><feComposite in="SourceGraphic"/></filter></defs><g transform="translate(-605.15 -86.182)"><g transform="matrix(1, 0, 0, 1, 605.15, 86.18)" filter="url(#a)"><path d="M836.949,211.585a107.377,107.377,0,0,1-54.644,93.57l-.256.143A107.508,107.508,0,0,1,681.2,307.5c-.283-.133-.559-.285-.842-.426a107.41,107.41,0,1,1,156.594-95.493Z" transform="translate(-605.15 -86.18)" fill="#4c8f78"/></g><path d="M783.651,253.538s-18.748,4.686-17.809,21.55l.633,13.881a107.508,107.508,0,0,1-100.852,2.206c1.667-7.727,3.2-19.9-.985-28.265l.938-8.437s-32.8,1.876-26.238-31.861c0,0,5.625-14.989,5.625-27.176,0,0,4.677-24.362,27.175-27.175h10.3s3.75-4.688,7.5-5.624c0,0-2.812-13.125,2.812-18.74,0,0,0-4.686-14.052-8.437,0,0-2.822-9.373,4.677-11.239,0,0,3.75,11.239,11.251,14.989,0,0,27.174-42.164,47.788,4.686l.936,1.876s13.125-6.563,13.125-10.313c0,0,4.686,5.624,3.748,10.313,0,0-11.249-1.876-14.061,2.812,0,0-.936,17.8,2.812,22.488,0,0,9.4,6.324,16.438,7.186a18.111,18.111,0,0,1,12.13,6.563,24.833,24.833,0,0,1,5.169,11.552s-1.874,13.123,6.553,35.611C789.266,231.986,791.142,248.85,783.651,253.538Z" transform="translate(15.574 16.801)" fill="#fff" stroke="#fff" stroke-miterlimit="10" stroke-width="0.969"/><path d="M913.642,170.985a9.873,9.873,0,1,1-9.873-9.873A9.87,9.87,0,0,1,913.642,170.985Z" transform="translate(264.327 54.329)" fill="#fff"/><g transform="translate(874.806 133.775)"><text transform="translate(0.276 155.223)" fill="#fff" font-size="44" font-family="Poppins-Regular, Poppins" letter-spacing="0.068em"><tspan x="0" y="0">Caters</tspan></text><path d="M752.4,204.457l6.266-7.053a3.746,3.746,0,0,1,5.8.227,17.778,17.778,0,0,0,4.708,4.348,19.862,19.862,0,0,0,10.9,3.123q7.317.021,11.583-3.426a11.378,11.378,0,0,0,4.282-9.3q.018-6.915-14.13-13.805-4.582-2.207-7.239-3.612-12.752-6.684-17.655-13.051a23.971,23.971,0,0,1-4.88-15.144,24.381,24.381,0,0,1,9.6-19.76q9.565-7.721,24.8-7.68a34.863,34.863,0,0,1,15.253,3.135,28.468,28.468,0,0,1,7.121,4.962,6.034,6.034,0,0,1-.012,8.745l-3.271,3.113a6.025,6.025,0,0,1-8.253.045,13.45,13.45,0,0,0-2.41-1.786,17.185,17.185,0,0,0-8.74-2.118q-6.185-.018-9.985,3.064a9.857,9.857,0,0,0-3.813,8q-.021,7.716,14.991,14.141,2.99,1.272,4.583,2.007,12.356,5.687,18.288,12.82a24.594,24.594,0,0,1,5.91,16.244q-.038,13.7-9.406,21.822T781.555,221.6q-11.172-.032-19.144-3.911a26.334,26.334,0,0,1-10.334-8.634A3.736,3.736,0,0,1,752.4,204.457Z" transform="translate(-751.432 -119.324)" fill="#fff"/><path d="M786.067,216.468v-96.63h14.739v47.681q0,2.433-.158,4.835t-.477,4.675a32.266,32.266,0,0,1,9.324-7.87,22.263,22.263,0,0,1,10.436-2.431,22.7,22.7,0,0,1,10.168,2.06,14.6,14.6,0,0,1,6.42,6.181,16.693,16.693,0,0,1,1.663,4.886,51.744,51.744,0,0,1,.5,8.532V220.3H827.32a3.692,3.692,0,0,1-3.692-3.692V194.674q0-9.562-2.218-12.625t-7.608-3.066a12.726,12.726,0,0,0-5.732,1.3,12.077,12.077,0,0,0-6.34,7.9,31.574,31.574,0,0,0-.608,7.239V220.3H789.894A3.828,3.828,0,0,1,786.067,216.468Z" transform="translate(-718.38 -118.833)" fill="#fff"/><path d="M829.631,158.889q2.272-7.557,6.523-11.308a15.367,15.367,0,0,1,10.541-3.75,33.805,33.805,0,0,1,4.7.528l.952.158L850.609,156.9a3.288,3.288,0,0,1-3.9,2.765l-.035-.008a18.455,18.455,0,0,0-3.619-.342q-6.868,0-9.879,3.512t-3.012,11.755V197.4h-11.9a3.152,3.152,0,0,1-3.152-3.152V160.419a14.845,14.845,0,0,1,14.845-14.845h0Z" transform="translate(-690.671 -95.937)" fill="#fff"/><path d="M885.754,174.636H849.168q.9,5.6,4.069,8.374t8.611,2.773a14.951,14.951,0,0,0,7.106-1.585,12.144,12.144,0,0,0,2.378-1.659,6.546,6.546,0,0,1,7.266-.821h0a6.673,6.673,0,0,1,1.309,11.067,24.625,24.625,0,0,1-4.061,2.8,29.343,29.343,0,0,1-14.317,3.3q-12.573,0-19.918-7.5T834.27,171.2q0-12.2,7.686-20.075t19.68-7.874q12.362,0,19.547,7.37t7.184,20.1q0,.686-.053,1.5v.016A2.564,2.564,0,0,1,885.754,174.636Zm-12.549-9.087a11.231,11.231,0,0,0-3.567-7.422q-2.932-2.509-8-2.509a12.337,12.337,0,0,0-8.11,2.509,11.822,11.822,0,0,0-3.883,7.422Z" transform="translate(-672.38 -96.487)" fill="#fff"/><path d="M863.621,119.838h15.056v70.435l15.331-18.281a13.008,13.008,0,0,1,9.965-4.649h12l-20.866,22.93,22.928,28.9h-12.5a12.255,12.255,0,0,1-9.773-4.864L878.677,191.7v27.474H867.315a3.7,3.7,0,0,1-3.694-3.7Z" transform="translate(-644.371 -118.833)" fill="#fff"/></g></g></svg>