<svg xmlns="http://www.w3.org/2000/svg" xmlns:xlink="http://www.w3.org/1999/xlink" width="530.771" height="231.996" viewBox="0 0 530.771 231.996"><defs><filter id="a" x="0" y="0" width="231.986" height="231.996" filterUnits="userSpaceOnUse"><feOffset dx="4" dy="3" input="SourceAlpha"/><feGaussianBlur stdDeviation="5.5" result="b"/><feFlood flood-opacity="0.161"/><feComposite operator="in" in2="b"/><feComposite in="SourceGraphic"/></filter></defs><g transform="translate(-97.65 -310.682)"><g transform="matrix(1, 0, 0, 1, 97.65, 310.68)" filter="url(#a)"><path d="M309.137,423.679a99.473,99.473,0,0,1-50.622,86.682l-.237.132a99.595,99.595,0,0,1-93.428,2.044c-.263-.123-.518-.264-.78-.395a99.5,99.5,0,1,1,145.067-88.463Z" transform="translate(-97.65 -310.68)" fill="#5dac57"/></g><path d="M260.964,463.839s-17.368,4.341-16.5,19.964l.587,12.86a99.594,99.594,0,0,1-93.428,2.044c1.544-7.158,2.965-18.437-.912-26.184l.869-7.816s-30.386,1.738-24.307-29.516c0,0,5.21-13.886,5.21-25.176,0,0,4.332-22.569,25.174-25.174H167.2s3.474-4.343,6.947-5.21c0,0-2.605-12.159,2.605-17.36,0,0,0-4.341-13.017-7.816,0,0-2.614-8.683,4.332-10.412,0,0,3.474,10.412,10.423,13.886,0,0,25.174-39.06,44.271,4.341l.867,1.738s12.159-6.079,12.159-9.554c0,0,4.341,5.21,3.472,9.554,0,0-10.421-1.738-13.026,2.605,0,0-.867,16.489,2.605,20.833,0,0,8.71,5.859,15.228,6.657a16.778,16.778,0,0,1,11.237,6.079,23.007,23.007,0,0,1,4.789,10.7s-1.736,12.157,6.07,32.99C266.165,443.874,267.9,459.5,260.964,463.839Z" transform="translate(13.226 14.269)" fill="#fff" stroke="#fff" stroke-miterlimit="10" stroke-width="0.969"/><path d="M400.189,390.258a9.146,9.146,0,1,1-9.146-9.146A9.144,9.144,0,0,1,400.189,390.258Z" transform="translate(228.233 45.139)" fill="#fff"/><g transform="translate(344.207 351.596)"><text transform="translate(0.255 144.183)" fill="#fff" font-size="41" font-family="Poppins-Regular, Poppins" letter-spacing="0.068em"><tspan x="0" y="0">Partner</tspan></text><path d="M240.326,418.19l5.8-6.534a3.47,3.47,0,0,1,5.375.21,16.469,16.469,0,0,0,4.361,4.028,18.4,18.4,0,0,0,10.1,2.893q6.778.019,10.73-3.174A10.541,10.541,0,0,0,280.659,407q.016-6.406-13.089-12.789-4.245-2.045-6.706-3.346-11.813-6.192-16.356-12.09a22.207,22.207,0,0,1-4.521-14.029,22.587,22.587,0,0,1,8.891-18.305q8.861-7.153,22.971-7.115a32.3,32.3,0,0,1,14.13,2.9,26.371,26.371,0,0,1,6.6,4.6,5.59,5.59,0,0,1-.011,8.1l-3.031,2.884a5.582,5.582,0,0,1-7.645.042,12.458,12.458,0,0,0-2.232-1.655,15.921,15.921,0,0,0-8.1-1.963,14.154,14.154,0,0,0-9.25,2.839,9.131,9.131,0,0,0-3.532,7.414q-.019,7.148,13.888,13.1,2.77,1.179,4.245,1.859,11.446,5.268,16.942,11.876a22.785,22.785,0,0,1,5.475,15.048q-.035,12.693-8.714,20.215t-23.279,7.484q-10.349-.03-17.735-3.623a24.4,24.4,0,0,1-9.574-8A3.461,3.461,0,0,1,240.326,418.19Z" transform="translate(-239.432 -339.324)" fill="#fff"/><path d="M274.067,429.355V339.838h13.654v44.171q0,2.254-.147,4.479t-.442,4.331a29.891,29.891,0,0,1,8.638-7.291,20.624,20.624,0,0,1,9.668-2.252,21.027,21.027,0,0,1,9.42,1.908,13.528,13.528,0,0,1,5.947,5.726,15.464,15.464,0,0,1,1.541,4.526,47.937,47.937,0,0,1,.465,7.9V432.9H312.284a3.421,3.421,0,0,1-3.42-3.42V409.165q0-8.859-2.055-11.7t-7.048-2.841a11.789,11.789,0,0,0-5.31,1.2,11.188,11.188,0,0,0-5.873,7.316,29.241,29.241,0,0,0-.563,6.706V432.9h-10.4A3.546,3.546,0,0,1,274.067,429.355Z" transform="translate(-211.363 -338.907)" fill="#fff"/><path d="M316.562,377.78q2.1-7,6.043-10.475a14.236,14.236,0,0,1,9.766-3.474,31.3,31.3,0,0,1,4.354.489l.882.147L336,375.934a3.046,3.046,0,0,1-3.617,2.562l-.033-.007a17.1,17.1,0,0,0-3.353-.317q-6.363,0-9.152,3.253t-2.79,10.89v21.142H306.023a2.92,2.92,0,0,1-2.92-2.92V379.2a13.752,13.752,0,0,1,13.752-13.752h0Z" transform="translate(-187.831 -319.462)" fill="#fff"/><path d="M369.964,392.326H336.071q.831,5.187,3.769,7.758a11.692,11.692,0,0,0,7.977,2.569,13.85,13.85,0,0,0,6.583-1.468,11.243,11.243,0,0,0,2.2-1.537,6.065,6.065,0,0,1,6.731-.76h0a6.182,6.182,0,0,1,1.213,10.252,22.8,22.8,0,0,1-3.762,2.591,27.182,27.182,0,0,1-13.263,3.06q-11.648,0-18.452-6.95t-6.8-18.695q0-11.305,7.12-18.6t18.231-7.294q11.452,0,18.108,6.827t6.655,18.624q0,.635-.049,1.394v.014A2.375,2.375,0,0,1,369.964,392.326Zm-11.625-8.419a10.4,10.4,0,0,0-3.3-6.876,11.028,11.028,0,0,0-7.414-2.325,11.428,11.428,0,0,0-7.513,2.325,10.952,10.952,0,0,0-3.6,6.876Z" transform="translate(-172.297 -319.93)" fill="#fff"/><path d="M351.621,339.838h13.948v65.25l14.2-16.935A12.051,12.051,0,0,1,389,383.846h11.118l-19.33,21.242,21.24,26.771h-11.58a11.353,11.353,0,0,1-9.054-4.506l-15.829-20.945v25.451H355.043a3.423,3.423,0,0,1-3.422-3.424Z" transform="translate(-148.51 -338.907)" fill="#fff"/></g></g></svg>